<svg width="21" height="21" viewBox="0 0 21 21" fill="none" xmlns="http://www.w3.org/2000/svg">
<path d="M10.2152 2.48498C12.8852 2.48498 13.2022 2.49498 14.2572 2.54398C16.9672 2.66698 18.2332 3.95298 18.3572 6.64298C18.4052 7.69698 18.4142 8.01298 18.4142 10.683C18.4142 13.355 18.4042 13.671 18.3562 14.725C18.2322 17.412 16.9702 18.7 14.2572 18.824C13.2022 18.872 12.8872 18.882 10.2152 18.882C7.54519 18.882 7.22919 18.872 6.17519 18.824C3.45819 18.7 2.19919 17.408 2.07519 14.724C2.02719 13.67 2.01719 13.354 2.01719 10.683C2.01719 8.01298 2.02719 7.69698 2.07519 6.64298C2.19919 3.95298 3.46219 2.66598 6.17519 2.54298C7.22919 2.49498 7.54519 2.48498 10.2152 2.48498ZM10.2152 0.682983C7.50019 0.682983 7.16019 0.694983 6.09319 0.742983C2.46119 0.909983 0.442187 2.92498 0.276187 6.55998C0.227187 7.62698 0.216187 7.96698 0.216187 10.683C0.216187 13.399 0.227187 13.74 0.276187 14.806C0.442187 18.438 2.45719 20.456 6.09219 20.623C7.16019 20.671 7.50019 20.683 10.2152 20.683C12.9312 20.683 13.2722 20.671 14.3392 20.623C17.9672 20.456 19.9902 18.441 20.1552 14.806C20.2042 13.74 20.2152 13.399 20.2152 10.683C20.2152 7.96698 20.2042 7.62698 20.1552 6.56098C19.9922 2.93198 17.9752 0.910983 14.3402 0.742983C13.2722 0.692983 12.9312 0.682983 10.2152 0.682983ZM10.2152 5.54798C8.8533 5.54798 7.54719 6.08899 6.58419 7.05199C5.62119 8.01499 5.08019 9.3211 5.08019 10.683C5.08019 12.0449 5.62119 13.351 6.58419 14.314C7.54719 15.277 8.8533 15.818 10.2152 15.818C11.5771 15.818 12.8832 15.277 13.8462 14.314C14.8092 13.351 15.3502 12.0449 15.3502 10.683C15.3502 9.3211 14.8092 8.01499 13.8462 7.05199C12.8832 6.08899 11.5771 5.54798 10.2152 5.54798ZM10.2152 14.016C9.33122 14.016 8.48346 13.6648 7.8584 13.0398C7.23334 12.4147 6.88219 11.5669 6.88219 10.683C6.88219 9.79902 7.23334 8.95126 7.8584 8.3262C8.48346 7.70114 9.33122 7.34998 10.2152 7.34998C11.0992 7.34998 11.9469 7.70114 12.572 8.3262C13.197 8.95126 13.5482 9.79902 13.5482 10.683C13.5482 11.5669 13.197 12.4147 12.572 13.0398C11.9469 13.6648 11.0992 14.016 10.2152 14.016ZM15.5542 4.14598C15.3966 4.14592 15.2405 4.17689 15.0949 4.23714C14.9493 4.29738 14.817 4.38572 14.7055 4.4971C14.594 4.60849 14.5056 4.74074 14.4452 4.8863C14.3849 5.03187 14.3538 5.1879 14.3537 5.34548C14.3536 5.50307 14.3846 5.65913 14.4448 5.80474C14.5051 5.95036 14.5934 6.08268 14.7048 6.19416C14.8162 6.30563 14.9484 6.39408 15.094 6.45445C15.2396 6.51481 15.3956 6.54592 15.5532 6.54598C15.8714 6.54598 16.1767 6.41956 16.4017 6.19451C16.6268 5.96947 16.7532 5.66424 16.7532 5.34598C16.7532 5.02772 16.6268 4.7225 16.4017 4.49746C16.1767 4.27241 15.8714 4.14598 15.5532 4.14598H15.5542Z" fill="white"/>
</svg>
